<svg xmlns="http://www.w3.org/2000/svg" xmlns:xlink="http://www.w3.org/1999/xlink" viewBox="0 0 430 430" width="430" height="430" preserveAspectRatio="xMidYMid meet" style="width: 100%; height: 100%; transform: translate3d(0px, 0px, 0px); content-visibility: visible;"><defs><clipPath id="__lottie_element_51"><rect width="430" height="430" x="0" y="0"/></clipPath><clipPath id="__lottie_element_53"><path d="M0,0 L430,0 L430,430 L0,430z"/></clipPath><g id="__lottie_element_66"><g transform="matrix(1,0,0,1,190.29299926757812,194.95701599121094)" opacity="1" style="display: block;"><g opacity="1" transform="matrix(1,0,0,1,0,0)"><path fill="rgb(44,165,141)" fill-opacity="1" d=" M55.79600143432617,118.14900207519531 C55.79600143432617,118.14900207519531 23.274999618530273,211.28500366210938 4.611000061035156,190.09500122070312 C-5.74399995803833,178.3419952392578 -8.954999923706055,146.51100158691406 -9.767000198364258,120.50800323486328 C-10.616999626159668,146.42799377441406 -13.857999801635742,177.92799377441406 -24.145000457763672,189.61399841308594 C-42.80099868774414,210.7969970703125 -55.33700180053711,117.66000366210938 -55.33700180053711,117.66000366210938 C-73.09100341796875,110.50900268554688 -78.85900115966797,91.22200012207031 -73.82099914550781,73.80599975585938 C-91.24400329589844,78.83699798583984 -110.53199768066406,73.06900024414062 -117.68299865722656,55.314998626708984 C-117.68299865722656,55.314998626708984 -128.81199645996094,32.7859992980957 -107.62899780273438,14.130000114440918 C-95.9729995727539,3.8580000400543213 -64.57099914550781,0.609000027179718 -38.680999755859375,-0.2409999966621399 C-64.66100311279297,-1.0609999895095825 -96.36399841308594,-4.2789998054504395 -108.09500122070312,-14.611000061035156 C-129.28500366210938,-33.275001525878906 -118.14900207519531,-55.79600143432617 -118.14900207519531,-55.79600143432617 C-111.00499725341797,-73.55699920654297 -91.71800231933594,-79.32499694824219 -74.28700256347656,-74.28700256347656 C-79.32499694824219,-91.71800231933594 -73.55699920654297,-111.00499725341797 -55.79600143432617,-118.14900207519531 C-55.79600143432617,-118.14900207519531 -41.275001525878906,-205.28500366210938 -22.611000061035156,-184.09500122070312 C-12.279000282287598,-172.36399841308594 -9.060999870300293,-140.66099548339844 -8.241000175476074,-114.68099975585938 C-7.390999794006348,-140.5709991455078 -4.142000198364258,-171.97300720214844 6.130000114440918,-183.62899780273438 C24.785999298095703,-204.81199645996094 55.314998626708984,-117.68299865722656 55.314998626708984,-117.68299865722656 C73.06900024414062,-110.53199768066406 78.83699798583984,-91.24400329589844 73.80599975585938,-73.82099914550781 C91.22200012207031,-78.85900115966797 110.50900268554688,-73.09100341796875 117.66000366210938,-55.33700180053711 C117.66000366210938,-55.33700180053711 128.7969970703125,-32.79999923706055 107.61399841308594,-14.144000053405762 C95.9280014038086,-3.8570001125335693 64.4280014038086,-0.6169999837875366 38.507999420166016,0.2329999953508377 C64.51100158691406,1.0449999570846558 96.34200286865234,4.25600004196167 108.09500122070312,14.611000061035156 C129.28500366210938,33.275001525878906 118.14900207519531,55.79600143432617 118.14900207519531,55.79600143432617 C111.00499725341797,73.55699920654297 91.71800231933594,79.32499694824219 74.28700256347656,74.28700256347656 C79.32499694824219,91.71800231933594 73.55699920654297,111.00499725341797 55.79600143432617,118.14900207519531z"/></g></g></g><filter id="__lottie_element_69" filterUnits="objectBoundingBox" x="0%" y="0%" width="100%" height="100%"><feComponentTransfer in="SourceGraphic"><feFuncA type="table" tableValues="1.0 0.0"/></feComponentTransfer></filter><mask id="__lottie_element_66_2" mask-type="alpha"><g filter="url(#__lottie_element_69)"><rect width="430" height="430" x="0" y="0" fill="#ffffff" opacity="0"/><use xmlns:ns1="http://www.w3.org/1999/xlink" ns1:href="#__lottie_element_66"/></g></mask></defs><g clip-path="url(#__lottie_element_51)"><g clip-path="url(#__lottie_element_53)" transform="matrix(1,0,0,1,0,0)" opacity="1" style="display: block;"><g transform="matrix(1,0,0,1,315.10699462890625,313.4330139160156)" opacity="1" style="display: block;"><g opacity="1" transform="matrix(1,0,0,1,0,0)"><path stroke-linecap="round" stroke-linejoin="round" fill-opacity="0" class="primary" stroke="rgb(44,165,141)" stroke-opacity="1" stroke-width="7" d=" M-99.5989990234375,-85.927001953125 C-99.5989990234375,-85.927001953125 -60.551998138427734,-37.909000396728516 -51.500999450683594,-28.604000091552734 C-30.57699966430664,-7.093999862670898 12.130000114440918,30.577999114990234 65.5270004272461,44.18899917602539"/></g></g><g transform="matrix(1,0,0,1,175.29299926757812,194.95701599121094)" opacity="1" style="display: block;"><g opacity="1" transform="matrix(1,0,0,1,0,0)"><path class="primary" fill="rgb(44,165,141)" fill-opacity="1" d=" M55.79600143432617,118.14900207519531 C55.79600143432617,118.14900207519531 33.275001525878906,129.28500366210938 14.611000061035156,108.09500122070312 C4.25600004196167,96.34200286865234 1.0449999570846558,64.51100158691406 0.2329999953508377,38.507999420166016 C-0.6169999837875366,64.4280014038086 -3.8580000400543213,95.9280014038086 -14.145000457763672,107.61399841308594 C-32.80099868774414,128.7969970703125 -55.33700180053711,117.66000366210938 -55.33700180053711,117.66000366210938 C-73.09100341796875,110.50900268554688 -78.85900115966797,91.22200012207031 -73.82099914550781,73.80599975585938 C-91.24400329589844,78.83699798583984 -110.53199768066406,73.06900024414062 -117.68299865722656,55.314998626708984 C-117.68299865722656,55.314998626708984 -128.81199645996094,32.7859992980957 -107.62899780273438,14.130000114440918 C-95.9729995727539,3.8580000400543213 -64.57099914550781,0.609000027179718 -38.680999755859375,-0.2409999966621399 C-64.66100311279297,-1.0609999895095825 -96.36399841308594,-4.2789998054504395 -108.09500122070312,-14.611000061035156 C-129.28500366210938,-33.275001525878906 -118.14900207519531,-55.79600143432617 -118.14900207519531,-55.79600143432617 C-111.00499725341797,-73.55699920654297 -91.71800231933594,-79.32499694824219 -74.28700256347656,-74.28700256347656 C-79.32499694824219,-91.71800231933594 -73.55699920654297,-111.00499725341797 -55.79600143432617,-118.14900207519531 C-55.79600143432617,-118.14900207519531 -33.275001525878906,-129.28500366210938 -14.611000061035156,-108.09500122070312 C-4.2789998054504395,-96.36399841308594 -1.0609999895095825,-64.66100311279297 -0.2409999966621399,-38.680999755859375 C0.609000027179718,-64.57099914550781 3.8580000400543213,-95.9729995727539 14.130000114440918,-107.62899780273438 C32.7859992980957,-128.81199645996094 55.314998626708984,-117.68299865722656 55.314998626708984,-117.68299865722656 C73.06900024414062,-110.53199768066406 78.83699798583984,-91.24400329589844 73.80599975585938,-73.82099914550781 C91.22200012207031,-78.85900115966797 110.50900268554688,-73.09100341796875 117.66000366210938,-55.33700180053711 C117.66000366210938,-55.33700180053711 128.7969970703125,-32.80099868774414 107.61399841308594,-14.145000457763672 C95.9280014038086,-3.8580000400543213 64.4280014038086,-0.6169999837875366 38.507999420166016,0.2329999953508377 C64.51100158691406,1.0449999570846558 96.34200286865234,4.25600004196167 108.09500122070312,14.611000061035156 C129.28500366210938,33.275001525878906 118.14900207519531,55.79600143432617 118.14900207519531,55.79600143432617 C111.00499725341797,73.55699920654297 91.71800231933594,79.32499694824219 74.28700256347656,74.28700256347656 C79.32499694824219,91.71800231933594 73.55699920654297,111.00499725341797 55.79600143432617,118.14900207519531z"/></g></g><g mask="url(#__lottie_element_66_2)" style="mix-blend-mode: multiply; display: block;"><g transform="matrix(1,0,0,1,175.29299926757812,194.95701599121094)" opacity="0.5"><g opacity="1" transform="matrix(1,0,0,1,0,0)"><path class="primary" fill="rgb(44,165,141)" fill-opacity="1" d=" M55.79600143432617,118.14900207519531 C55.79600143432617,118.14900207519531 33.275001525878906,129.28500366210938 14.611000061035156,108.09500122070312 C4.25600004196167,96.34200286865234 1.0449999570846558,64.51100158691406 0.2329999953508377,38.507999420166016 C-0.6169999837875366,64.4280014038086 -3.8580000400543213,95.9280014038086 -14.145000457763672,107.61399841308594 C-32.80099868774414,128.7969970703125 -55.33700180053711,117.66000366210938 -55.33700180053711,117.66000366210938 C-73.09100341796875,110.50900268554688 -78.85900115966797,91.22200012207031 -73.82099914550781,73.80599975585938 C-91.24400329589844,78.83699798583984 -110.53199768066406,73.06900024414062 -117.68299865722656,55.314998626708984 C-117.68299865722656,55.314998626708984 -128.81199645996094,32.7859992980957 -107.62899780273438,14.130000114440918 C-95.9729995727539,3.8580000400543213 -64.57099914550781,0.609000027179718 -38.680999755859375,-0.2409999966621399 C-64.66100311279297,-1.0609999895095825 -96.36399841308594,-4.2789998054504395 -108.09500122070312,-14.611000061035156 C-129.28500366210938,-33.275001525878906 -118.14900207519531,-55.79600143432617 -118.14900207519531,-55.79600143432617 C-111.00499725341797,-73.55699920654297 -91.71800231933594,-79.32499694824219 -74.28700256347656,-74.28700256347656 C-79.32499694824219,-91.71800231933594 -73.55699920654297,-111.00499725341797 -55.79600143432617,-118.14900207519531 C-55.79600143432617,-118.14900207519531 -33.275001525878906,-129.28500366210938 -14.611000061035156,-108.09500122070312 C-4.2789998054504395,-96.36399841308594 -1.0609999895095825,-64.66100311279297 -0.2409999966621399,-38.680999755859375 C0.609000027179718,-64.57099914550781 3.8580000400543213,-95.9729995727539 14.130000114440918,-107.62899780273438 C32.7859992980957,-128.81199645996094 55.314998626708984,-117.68299865722656 55.314998626708984,-117.68299865722656 C73.06900024414062,-110.53199768066406 78.83699798583984,-91.24400329589844 73.80599975585938,-73.82099914550781 C91.22200012207031,-78.85900115966797 110.50900268554688,-73.09100341796875 117.66000366210938,-55.33700180053711 C117.66000366210938,-55.33700180053711 128.7969970703125,-32.80099868774414 107.61399841308594,-14.145000457763672 C95.9280014038086,-3.8580000400543213 64.4280014038086,-0.6169999837875366 38.507999420166016,0.2329999953508377 C64.51100158691406,1.0449999570846558 96.34200286865234,4.25600004196167 108.09500122070312,14.611000061035156 C129.28500366210938,33.275001525878906 118.14900207519531,55.79600143432617 118.14900207519531,55.79600143432617 C111.00499725341797,73.55699920654297 91.71800231933594,79.32499694824219 74.28700256347656,74.28700256347656 C79.32499694824219,91.71800231933594 73.55699920654297,111.00499725341797 55.79600143432617,118.14900207519531z"/></g></g></g></g></g></svg>